<svg width="50" height="32" viewBox="0 0 50 32" fill="none" xmlns="http://www.w3.org/2000/svg">
<g clip-path="url(#clip0_280_473)">
<path d="M45.255 24.5709L43.959 26.8857L41.3642 30.5717C40.8613 31.4738 40.0941 32 39.2775 32H10.7199C9.90857 32 9.13871 31.4738 8.63324 30.5717L6.0385 26.8857L4.74243 24.5709H45.2576H45.255Z" fill="#F5F5FC"/>
<path d="M36.4521 10.4541H12.7573V24.2262H36.4521V10.4541Z" fill="#FFCD24"/>
<path d="M12.2182 9.91495V24.7679H36.9887V9.91495H12.2182ZM13.2991 23.6896V10.9959H35.913V23.6896H13.2991Z" fill="#C46E00"/>
<path d="M12.3452 25.9914C16.6357 25.9914 20.1138 22.5133 20.1138 18.2228C20.1138 13.9322 16.6357 10.4541 12.3452 10.4541C8.05468 10.4541 4.57654 13.9322 4.57654 18.2228C4.57654 22.5133 8.05468 25.9914 12.3452 25.9914Z" fill="#FFCD24"/>
<path d="M19.8987 16.4083C19.7561 16.4731 19.5954 16.5068 19.4114 16.5068C19.3984 16.5068 19.3803 16.5068 19.3673 16.5016C19.3881 16.5871 19.4062 16.6753 19.4243 16.7608C19.5228 17.2326 19.5747 17.7199 19.5747 18.2254C19.5747 17.681 19.6602 17.16 19.8209 16.6675C19.8469 16.5897 19.8728 16.512 19.9039 16.4342V16.429C19.9039 16.429 19.9039 16.416 19.8987 16.4083ZM20.3938 16.175C20.386 16.1361 20.3757 16.092 20.3627 16.0531C20.3497 15.9935 20.3316 15.9313 20.3109 15.8717C20.2927 15.8121 20.2772 15.7499 20.2538 15.6902C20.1838 15.4699 20.1061 15.2574 20.0154 15.0474C19.9376 14.8582 19.8546 14.6715 19.7613 14.4901C19.5876 14.1453 19.3906 13.8161 19.1755 13.5025C19.0718 13.3521 18.9629 13.2044 18.8437 13.0618C18.7348 12.9192 18.6156 12.7767 18.4938 12.6419C17.9028 11.9913 17.2029 11.4288 16.4304 10.9933C16.0623 10.7807 15.6787 10.6045 15.2821 10.4541C15.0877 10.3815 14.8881 10.3115 14.6859 10.2519C13.9394 10.0316 13.1539 9.91495 12.3426 9.91495C12.2985 9.91495 12.2597 9.91495 12.2182 9.92013C11.2384 9.93309 10.2974 10.1197 9.42645 10.4463C9.14131 10.5552 8.86136 10.6744 8.58918 10.817C8.50624 10.8559 8.42847 10.9 8.35071 10.9466C5.78189 12.3542 4.03479 15.0863 4.03479 18.2228C4.03479 22.8031 7.76488 26.5306 12.3426 26.5306C14.2634 26.5306 16.0416 25.8696 17.4491 24.7653C17.6695 24.5968 17.8768 24.4154 18.0738 24.2262C18.2216 24.0888 18.359 23.9488 18.4938 23.7985C18.5275 23.7648 18.5586 23.7259 18.5897 23.687C18.6804 23.5885 18.7633 23.4874 18.8437 23.3837C18.9603 23.2412 19.0692 23.0934 19.1755 22.9431C19.3906 22.6268 19.5902 22.3002 19.7613 21.9554C19.8572 21.7688 19.9428 21.5848 20.0154 21.3955C20.1061 21.1882 20.1838 20.9756 20.2538 20.7579C20.513 19.9595 20.6504 19.1093 20.6504 18.2254C20.6504 17.5177 20.5649 16.8308 20.3912 16.175H20.3938ZM19.3414 20.045C19.3414 20.045 19.3362 20.0502 19.3414 20.0502C19.2714 20.3224 19.1859 20.5842 19.0822 20.8408C18.9215 21.2556 18.7271 21.647 18.4964 22.0203C18.3927 22.1887 18.2838 22.352 18.1672 22.5076C18.0557 22.6579 17.939 22.8057 17.812 22.9482C17.5839 23.2126 17.3377 23.4615 17.0707 23.6896C16.8503 23.884 16.6171 24.0603 16.3708 24.2288C16.0675 24.4309 15.7539 24.6098 15.4221 24.7679C14.4889 25.2086 13.4443 25.4548 12.3452 25.4548C8.35589 25.4548 5.11571 22.2095 5.11571 18.2254C5.11571 15.584 6.53621 13.2744 8.65399 12.0198C8.71879 11.9757 8.77841 11.9368 8.84322 11.9031C9.11539 11.7528 9.39534 11.618 9.68825 11.5013C10.4737 11.1903 11.3239 11.014 12.2182 11.0011C12.2623 10.9959 12.3011 10.9959 12.3426 10.9959C12.48 10.9959 12.62 11.0011 12.7522 11.0088C12.9388 11.0166 13.1203 11.0348 13.2965 11.0607C14.45 11.211 15.5206 11.6387 16.4356 12.2686C16.9437 12.6186 17.4102 13.0333 17.812 13.5025C17.9339 13.6373 18.0453 13.7798 18.1542 13.925C18.1594 13.9302 18.162 13.938 18.1672 13.9431C18.2838 14.0987 18.3927 14.262 18.4964 14.4305C18.7296 14.8011 18.9241 15.1951 19.0822 15.6099C19.1392 15.7447 19.1859 15.8769 19.2299 16.0169C19.274 16.1465 19.3077 16.2709 19.3414 16.4005C19.3362 16.4005 19.3414 16.4057 19.3414 16.4057C19.3492 16.4368 19.3595 16.4705 19.3673 16.5042C19.3881 16.5897 19.4062 16.6778 19.4243 16.7634C19.5228 17.2352 19.5747 17.7225 19.5747 18.2279C19.5747 18.8578 19.4917 19.467 19.3414 20.0502V20.045ZM19.8987 16.4083C19.7561 16.4731 19.5954 16.5068 19.4114 16.5068C19.3984 16.5068 19.3803 16.5068 19.3673 16.5016C19.3881 16.5871 19.4062 16.6753 19.4243 16.7608C19.5228 17.2326 19.5747 17.7199 19.5747 18.2254C19.5747 17.681 19.6602 17.16 19.8209 16.6675C19.8469 16.5897 19.8728 16.512 19.9039 16.4342V16.429C19.9039 16.429 19.9039 16.416 19.8987 16.4083Z" fill="#C46E00"/>
<path d="M12.3452 23.8348C15.4446 23.8348 17.9572 21.3222 17.9572 18.2228C17.9572 15.1234 15.4446 12.6108 12.3452 12.6108C9.24579 12.6108 6.73322 15.1234 6.73322 18.2228C6.73322 21.3222 9.24579 23.8348 12.3452 23.8348Z" fill="#FFCD24"/>
<path d="M17.908 15.6099C17.812 15.3973 17.7006 15.2003 17.5788 15.0059C17.4699 14.8296 17.3532 14.656 17.2236 14.4927C16.6585 13.7461 15.9198 13.137 15.0747 12.7196H15.0696C15.0125 12.6885 14.9607 12.6626 14.9063 12.6367C14.6937 12.5382 14.4708 12.45 14.2427 12.3775C13.9394 12.279 13.6205 12.2012 13.2965 12.1494C13.1151 12.1234 12.9388 12.1027 12.7522 12.0923C12.6174 12.0794 12.48 12.0742 12.3426 12.0742C12.2986 12.0742 12.2597 12.0742 12.2182 12.0794C11.622 12.0871 11.0491 12.1882 10.51 12.3567C10.1989 12.4526 9.90601 12.5719 9.62087 12.7144C9.55607 12.7481 9.48608 12.7844 9.42128 12.8233C7.5005 13.8602 6.19147 15.8924 6.19147 18.2279C6.19147 21.577 8.87952 24.3091 12.2182 24.3739C12.2623 24.3791 12.3011 24.3791 12.3426 24.3791C12.8014 24.3791 13.2447 24.3272 13.6776 24.2313C14.1986 24.1147 14.7015 23.9332 15.1629 23.6922C15.9742 23.2722 16.6767 22.6812 17.2262 21.9606C17.3558 21.7973 17.4725 21.6236 17.5813 21.4474C17.7032 21.253 17.8146 21.0534 17.9105 20.8434C18.2864 20.0502 18.4964 19.1637 18.4964 18.2279C18.4964 17.2922 18.2838 16.4057 17.9105 15.6125L17.908 15.6099ZM12.7548 23.28C12.62 23.293 12.4826 23.2982 12.3452 23.2982C12.3011 23.2982 12.2597 23.2982 12.2208 23.293C9.4809 23.2282 7.27498 20.9782 7.27498 18.2253C7.27498 15.7965 8.99357 13.7591 11.285 13.2692C11.5831 13.2044 11.8942 13.1655 12.2078 13.1577H12.2208C12.2597 13.1525 12.3037 13.1525 12.3452 13.1525C12.4826 13.1525 12.6226 13.1577 12.7548 13.1707C12.9414 13.1836 13.1229 13.2095 13.2991 13.2432C14.7663 13.5232 16.0131 14.4382 16.7337 15.6902C16.8711 15.9287 16.9929 16.175 17.0888 16.4316C17.3014 16.9889 17.418 17.5929 17.418 18.2228C17.418 18.8526 17.3014 19.4566 17.0888 20.0139C16.9929 20.2731 16.8737 20.5194 16.7337 20.7553C16.0131 22.0073 14.7663 22.9223 13.2991 23.2023C13.1229 23.236 12.9414 23.2619 12.7548 23.2748V23.28Z" fill="#C46E00"/>
<path d="M12.3452 21.6755C14.2521 21.6755 15.7979 20.1296 15.7979 18.2228C15.7979 16.3159 14.2521 14.77 12.3452 14.77C10.4383 14.77 8.89246 16.3159 8.89246 18.2228C8.89246 20.1296 10.4383 21.6755 12.3452 21.6755Z" fill="#FFCD24"/>
<path d="M13.2991 14.3475C13.1228 14.3034 12.9414 14.2697 12.7547 14.2516C12.6199 14.2386 12.4826 14.2309 12.3452 14.2309C12.3011 14.2309 12.2622 14.2309 12.2207 14.236C10.0745 14.3009 8.35327 16.0661 8.35327 18.2254C8.35327 20.3846 10.0745 22.1499 12.2207 22.2147C12.2648 22.2198 12.3037 22.2198 12.3452 22.2198C12.4826 22.2198 12.6225 22.2121 12.7547 22.1991C12.9414 22.181 13.1228 22.1473 13.2991 22.1032C15.0436 21.6755 16.3371 20.0995 16.3371 18.2279C16.3371 16.3564 15.041 14.7804 13.2991 14.3527V14.3475ZM13.2991 20.973C13.1254 21.0378 12.944 21.0819 12.7547 21.1026C12.6199 21.1286 12.4826 21.1363 12.3452 21.1363C12.3011 21.1363 12.2622 21.1363 12.2207 21.1286C10.6706 21.0689 9.4316 19.7858 9.4316 18.2228C9.4316 16.6597 10.6706 15.3792 12.2207 15.317C12.2648 15.3092 12.3037 15.3092 12.3452 15.3092C12.4826 15.3092 12.6225 15.317 12.7547 15.3429C12.944 15.3636 13.1254 15.4077 13.2991 15.4725C14.4396 15.8665 15.2587 16.9474 15.2587 18.2228C15.2587 19.4981 14.4396 20.579 13.2991 20.973Z" fill="#C46E00"/>
<path d="M24.6449 25.9914C28.9354 25.9914 32.4136 22.5133 32.4136 18.2228C32.4136 13.9322 28.9354 10.4541 24.6449 10.4541C20.3544 10.4541 16.8763 13.9322 16.8763 18.2228C16.8763 22.5133 20.3544 25.9914 24.6449 25.9914Z" fill="#FFCD24"/>
<path d="M32.1258 16.1309C32.1129 16.0739 32.0947 16.0194 32.0792 15.9624C32.0481 15.851 32.0092 15.7421 31.9703 15.6306C31.9755 15.6228 31.9781 15.6125 31.9833 15.6047H31.9885C32.0144 15.5477 32.0455 15.4932 32.0792 15.4362C32.0144 15.4233 31.9444 15.4103 31.8796 15.3921C31.8329 15.2625 31.7759 15.1381 31.7189 15.0111H31.7059C31.6411 15.107 31.5841 15.2107 31.5296 15.3092C31.4311 15.2833 31.3275 15.2574 31.2238 15.2262C31.2549 15.2911 31.2834 15.361 31.3145 15.4284C31.3404 15.4855 31.3612 15.5451 31.3845 15.6047C31.4882 15.8639 31.5737 16.1231 31.6437 16.3953C31.6385 16.3953 31.6437 16.4005 31.6437 16.4005C31.794 16.9837 31.877 17.5929 31.877 18.2228C31.877 17.5929 31.9936 16.9889 32.2062 16.4316C32.1855 16.3331 32.1595 16.2294 32.1284 16.1283L32.1258 16.1309ZM17.5787 15.0033C17.5139 15.1329 17.4543 15.2677 17.4051 15.4051C17.3714 15.4777 17.3454 15.5529 17.3195 15.6306L17.3325 15.6565C17.3662 15.7265 17.4025 15.7939 17.4362 15.8691C17.4932 15.9857 17.5399 16.1024 17.5865 16.2242C17.6047 16.2812 17.6254 16.3409 17.6461 16.4005C17.7161 16.1283 17.8017 15.8691 17.9053 15.6099C17.8094 15.3973 17.698 15.2003 17.5761 15.0059L17.5787 15.0033ZM32.1258 16.1309C32.1129 16.0739 32.0947 16.0194 32.0792 15.9624C32.0481 15.851 32.0092 15.7421 31.9703 15.6306C31.9651 15.6228 31.9625 15.6099 31.9625 15.5995C31.8537 15.5736 31.7474 15.5477 31.6333 15.5166C31.5763 15.5036 31.5115 15.4855 31.4519 15.4699C31.426 15.5166 31.4052 15.5606 31.3819 15.6073C31.4856 15.8665 31.5711 16.1257 31.6411 16.3979C31.6359 16.3979 31.6411 16.4031 31.6411 16.4031C31.7915 16.9863 31.8744 17.5955 31.8744 18.2254C31.8744 17.5955 31.991 16.9915 32.2036 16.4342C32.1829 16.3357 32.1569 16.232 32.1258 16.1309ZM32.5665 15.7162C32.5665 15.7162 32.5613 15.698 32.5587 15.6902C32.5406 15.6306 32.5198 15.5684 32.4991 15.5088C32.455 15.374 32.4084 15.2444 32.3514 15.12C32.3436 15.094 32.3332 15.0733 32.3203 15.0474C32.2425 14.8582 32.1595 14.6715 32.0662 14.4901C31.8925 14.1453 31.6955 13.8161 31.4804 13.5025C31.3767 13.3521 31.2678 13.2044 31.1486 13.0618C31.0397 12.9192 30.9205 12.7767 30.7987 12.6419C30.2077 11.9913 29.5078 11.4288 28.7353 10.9933C28.3672 10.7807 27.9836 10.6045 27.587 10.4541C26.672 10.1042 25.6792 9.91495 24.6475 9.91495C23.6158 9.91495 22.623 10.1042 21.708 10.4541C21.3114 10.6045 20.9278 10.7833 20.5597 10.9933C19.7872 11.4288 19.0874 11.9913 18.4964 12.6419C18.3745 12.7767 18.2553 12.9192 18.1464 13.0618C18.0764 13.1448 18.0168 13.2225 17.952 13.3081C17.9053 13.3729 17.8613 13.4377 17.8146 13.5025C17.7498 13.5984 17.685 13.6917 17.6202 13.7928V13.798C17.5865 13.8498 17.5554 13.9017 17.5243 13.9535V13.9587C17.4154 14.1324 17.3169 14.3138 17.2262 14.4927C17.1303 14.6741 17.0499 14.8608 16.9722 15.05C16.8814 15.2625 16.8037 15.4725 16.7337 15.6928C16.4745 16.4912 16.3371 17.3414 16.3371 18.2254C16.3371 19.1093 16.4745 19.9595 16.7337 20.7579C16.8037 20.9782 16.8814 21.1908 16.9722 21.3955C17.0448 21.5848 17.1329 21.7714 17.2262 21.9554C17.3999 22.3002 17.5969 22.6294 17.812 22.9431C17.9209 23.0934 18.0272 23.2412 18.1438 23.3837C18.2268 23.4874 18.3071 23.5859 18.3979 23.687C18.429 23.7259 18.4575 23.7648 18.4938 23.7985C18.6286 23.9488 18.7659 24.0888 18.9137 24.2262C19.1133 24.4154 19.3207 24.5968 19.5384 24.7653C20.9459 25.8696 22.7241 26.5306 24.6449 26.5306C26.5657 26.5306 28.3439 25.8696 29.7514 24.7653C29.9718 24.5968 30.1791 24.4154 30.3761 24.2262C30.5239 24.0888 30.6613 23.9488 30.7961 23.7985C30.8298 23.7648 30.8609 23.7259 30.892 23.687C30.9827 23.5885 31.0657 23.4874 31.146 23.3837C31.2627 23.2412 31.3715 23.0934 31.4778 22.9431C31.693 22.6268 31.8925 22.3002 32.0636 21.9554C32.1595 21.7688 32.2451 21.5848 32.3177 21.3955C32.4084 21.1882 32.4861 20.9756 32.5561 20.7579C32.8153 19.9595 32.9527 19.1093 32.9527 18.2254C32.9527 17.3414 32.8179 16.5068 32.5639 15.7188L32.5665 15.7162ZM31.6437 20.045C31.6437 20.045 31.6385 20.0502 31.6437 20.0502C31.5737 20.3224 31.4882 20.5842 31.3845 20.8408C31.2238 21.2556 31.0294 21.647 30.7987 22.0203C30.695 22.1887 30.5861 22.352 30.4695 22.5076C30.358 22.6579 30.2414 22.8057 30.1143 22.9482C29.8862 23.2126 29.64 23.4615 29.373 23.6896C29.1527 23.884 28.9194 24.0603 28.6731 24.2288C28.3698 24.4309 28.0562 24.6098 27.7244 24.7679C26.7912 25.2086 25.7466 25.4548 24.6475 25.4548C23.5484 25.4548 22.5012 25.2086 21.5706 24.7679C21.2388 24.6072 20.9226 24.4309 20.6219 24.2288C20.3757 24.0603 20.1424 23.884 19.922 23.6896C19.655 23.4615 19.4088 23.21 19.1807 22.9482C19.0563 22.8057 18.9396 22.6579 18.8256 22.5076C18.7089 22.352 18.6 22.1887 18.4964 22.0203C18.2631 21.6496 18.0686 21.2556 17.9105 20.8408C17.8068 20.5868 17.7213 20.3224 17.6513 20.0502V20.045C17.501 19.4618 17.418 18.8527 17.418 18.2228C17.418 17.5929 17.501 16.9837 17.6513 16.4005V16.3953C17.7213 16.1231 17.8068 15.8639 17.9105 15.6047C17.9183 15.5788 17.9287 15.558 17.9416 15.5321V15.5269C17.9676 15.4544 18.0013 15.3844 18.0324 15.3118C18.1179 15.1096 18.219 14.91 18.3253 14.7156C18.3823 14.6171 18.4367 14.5212 18.4989 14.4253C18.6026 14.2568 18.7115 14.0935 18.8281 13.938C18.9396 13.7876 19.0563 13.6399 19.1833 13.4973C20.5079 11.9601 22.4675 10.9907 24.6527 10.9907C26.8379 10.9907 28.7975 11.9627 30.1221 13.4973C30.2465 13.6399 30.3632 13.7876 30.4772 13.938C30.5939 14.0935 30.7028 14.2568 30.8064 14.4253C30.892 14.5601 30.9749 14.7026 31.0475 14.8452C31.1123 14.9696 31.1771 15.0966 31.2341 15.2262C31.2652 15.2911 31.2938 15.361 31.3249 15.4284C31.3508 15.4855 31.3715 15.5451 31.3949 15.6047C31.4985 15.8639 31.5841 16.1231 31.6541 16.3953C31.6489 16.3953 31.6541 16.4005 31.6541 16.4005C31.8044 16.9837 31.8874 17.5929 31.8874 18.2228C31.8874 18.8527 31.8044 19.4618 31.6541 20.045H31.6437ZM17.5787 15.0033C17.5139 15.1329 17.4543 15.2677 17.4051 15.4051C17.3714 15.4777 17.3454 15.5529 17.3195 15.6306L17.3325 15.6565C17.3662 15.7265 17.4025 15.7939 17.4362 15.8691C17.4932 15.9857 17.5399 16.1024 17.5865 16.2242C17.6047 16.2812 17.6254 16.3409 17.6461 16.4005C17.7161 16.1283 17.8017 15.8691 17.9053 15.6099C17.8094 15.3973 17.698 15.2003 17.5761 15.0059L17.5787 15.0033ZM32.1258 16.1309C32.1129 16.0739 32.0947 16.0194 32.0792 15.9624C32.0481 15.851 32.0092 15.7421 31.9703 15.6306C31.9755 15.6228 31.9781 15.6125 31.9833 15.6047H31.9885C32.0144 15.5477 32.0455 15.4932 32.0792 15.4362C32.0144 15.4233 31.9444 15.4103 31.8796 15.3921C31.8329 15.2625 31.7759 15.1381 31.7189 15.0111H31.7059C31.6411 15.107 31.5841 15.2107 31.5296 15.3092C31.4311 15.2833 31.3275 15.2574 31.2238 15.2262C31.2549 15.2911 31.2834 15.361 31.3145 15.4284C31.3404 15.4855 31.3612 15.5451 31.3845 15.6047C31.4882 15.8639 31.5737 16.1231 31.6437 16.3953C31.6385 16.3953 31.6437 16.4005 31.6437 16.4005C31.794 16.9837 31.877 17.5929 31.877 18.2228C31.877 17.5929 31.9936 16.9889 32.2062 16.4316C32.1855 16.3331 32.1595 16.2294 32.1284 16.1283L32.1258 16.1309Z" fill="#C46E00"/>
<path d="M24.6449 23.8348C27.7443 23.8348 30.2569 21.3222 30.2569 18.2228C30.2569 15.1234 27.7443 12.6108 24.6449 12.6108C21.5455 12.6108 19.0329 15.1234 19.0329 18.2228C19.0329 21.3222 21.5455 23.8348 24.6449 23.8348Z" fill="#FFCD24"/>
<path d="M29.2719 15.0474C29.2537 15.0266 29.2408 15.0033 29.2252 14.9826C29.1474 14.8737 29.0697 14.77 28.9841 14.6663C28.9841 14.6611 28.979 14.6586 28.9764 14.6534C28.9453 14.6197 28.9167 14.5808 28.8856 14.5445H28.8805C28.8105 14.4667 28.7431 14.389 28.6679 14.3164C27.1022 13.6787 25.7077 13.0436 24.663 13.0436C23.2555 13.0436 22.4131 13.4584 21.8402 14.0027C22.0657 13.855 22.299 13.7228 22.5427 13.6139C22.5427 13.6087 22.5479 13.6087 22.5479 13.6087C22.9678 13.4143 23.4162 13.2795 23.8828 13.207C23.9554 13.1992 24.0306 13.1888 24.1031 13.181C24.1213 13.1758 24.142 13.1758 24.1602 13.1758C24.2431 13.1681 24.3235 13.1577 24.4116 13.1577C24.4894 13.1499 24.5671 13.1499 24.6501 13.1499C25.5833 13.1499 26.4542 13.404 27.2085 13.8446C27.2085 13.8446 27.2111 13.8463 27.2163 13.8498C27.9706 14.2957 28.6031 14.9333 29.0386 15.6876C29.176 15.9261 29.2978 16.1724 29.3937 16.429C29.4144 16.3305 29.4404 16.2268 29.4715 16.1257C29.4844 16.0687 29.5026 16.0142 29.5181 15.9572C29.5492 15.8458 29.5881 15.7369 29.627 15.6254C29.5181 15.4232 29.4015 15.2288 29.2771 15.0422L29.2719 15.0474ZM19.8987 16.4082C19.8987 16.4082 19.9039 16.4212 19.9039 16.429C19.9091 16.416 19.9116 16.4108 19.922 16.3979C19.9168 16.4031 19.9091 16.4031 19.9013 16.4057L19.8987 16.4082ZM29.7981 16.0065C29.7462 15.8846 29.6892 15.7654 29.6296 15.6436C29.6244 15.6384 29.6244 15.6358 29.6218 15.6306C29.5129 15.4284 29.3963 15.234 29.2719 15.0474C29.1811 15.2599 29.1034 15.4699 29.0334 15.6902C29.1708 15.9287 29.2926 16.175 29.3885 16.4316C29.6011 16.9889 29.7177 17.5929 29.7177 18.2228C29.7177 17.5929 29.8007 16.9837 29.951 16.4005V16.3953C29.9044 16.2605 29.8551 16.1309 29.8007 16.0013L29.7981 16.0065ZM30.2102 15.6099C30.1143 15.3973 30.0029 15.2003 29.881 15.0059C29.8629 14.98 29.8499 14.9541 29.8292 14.9281C29.7903 14.8556 29.7436 14.7856 29.6944 14.7208C29.6425 14.643 29.5855 14.5652 29.5259 14.4927C29.4689 14.4149 29.4093 14.3423 29.3445 14.2671C28.2169 12.9244 26.5294 12.0742 24.6449 12.0742C22.6541 12.0742 20.8863 13.0229 19.7639 14.4901C19.6343 14.6534 19.5176 14.827 19.4088 15.0033C19.2869 15.1977 19.1755 15.3973 19.0796 15.6073C19.0355 15.698 18.994 15.7887 18.9577 15.8846C18.8877 16.0453 18.8281 16.2138 18.7711 16.3797C18.7452 16.4653 18.7193 16.5534 18.6985 16.639C18.5637 17.1444 18.4911 17.6758 18.4911 18.2228C18.4911 19.1585 18.7037 20.045 19.077 20.8382C19.1729 21.0508 19.2843 21.2478 19.4062 21.4422C19.515 21.6185 19.6317 21.7921 19.7613 21.9554C20.3082 22.6761 21.0133 23.2671 21.8246 23.687C22.286 23.9281 22.7863 24.1095 23.3099 24.2262C23.7428 24.3221 24.1861 24.3739 24.6449 24.3739C25.1037 24.3739 25.547 24.3221 25.9799 24.2262C26.5009 24.1095 27.0037 23.9281 27.4651 23.687C28.2765 23.2671 28.979 22.6761 29.5285 21.9554C29.6581 21.7921 29.7747 21.6185 29.8836 21.4422C30.0054 21.2478 30.1169 21.0482 30.2128 20.8382C30.5887 20.045 30.7986 19.1585 30.7986 18.2228C30.7986 17.287 30.5861 16.4005 30.2128 15.6073L30.2102 15.6099ZM19.8209 16.6649C19.8468 16.5871 19.8728 16.5093 19.9039 16.4316V16.4264C19.9091 16.4134 19.9116 16.4082 19.922 16.3953C19.9687 16.2579 20.0309 16.1231 20.0957 15.9883C20.1475 15.8846 20.1994 15.7861 20.259 15.685C20.5493 15.1848 20.9226 14.7363 21.3632 14.363C21.5136 14.2283 21.6743 14.109 21.8428 13.995C22.0683 13.8472 22.3016 13.715 22.5453 13.6061C22.5453 13.601 22.5504 13.601 22.5504 13.601C22.9704 13.4065 23.4188 13.2718 23.8854 13.1992C23.958 13.1914 24.0332 13.181 24.1057 13.1733C24.1239 13.1681 24.1446 13.1681 24.1628 13.1681C24.2457 13.1603 24.3261 13.1499 24.4142 13.1499C24.492 13.1422 24.5697 13.1422 24.6527 13.1422C25.5858 13.1422 26.4568 13.3962 27.2111 13.8368C27.2111 13.8368 27.2137 13.8386 27.2189 13.842C27.9732 14.2879 28.6057 14.9255 29.0412 15.6799C29.1786 15.9183 29.3004 16.1646 29.3963 16.4212C29.6089 16.9785 29.7255 17.5825 29.7255 18.2124C29.7255 18.8423 29.6089 19.4462 29.3963 20.0036C29.3004 20.2628 29.1811 20.509 29.0412 20.7449C28.165 22.2587 26.5242 23.2826 24.6527 23.2826C22.7811 23.2826 21.1403 22.2587 20.2642 20.7449C20.1268 20.5064 20.005 20.2628 19.9091 20.0036C19.6965 19.4462 19.5799 18.8423 19.5799 18.2124C19.5799 17.668 19.6654 17.147 19.8261 16.6545L19.8209 16.6649ZM19.8987 16.4082C19.8987 16.4082 19.9039 16.4212 19.9039 16.429C19.9091 16.416 19.9116 16.4108 19.922 16.3979C19.9168 16.4031 19.9091 16.4031 19.9013 16.4057L19.8987 16.4082ZM29.7981 16.0065C29.7462 15.8846 29.6892 15.7654 29.6296 15.6436C29.6244 15.6384 29.6244 15.6358 29.6218 15.6306C29.5129 15.4284 29.3963 15.234 29.2719 15.0474C29.2537 15.0266 29.2408 15.0033 29.2252 14.9826C29.1474 14.8737 29.0697 14.77 28.9841 14.6663C28.9841 14.6611 28.979 14.6586 28.9764 14.6534C28.9453 14.6197 28.9167 14.5808 28.8856 14.5445H28.8805C28.8105 14.4667 28.7431 14.389 28.6679 14.3164C27.1022 13.6787 25.7077 13.0436 24.663 13.0436C23.2555 13.0436 22.4131 13.4584 21.8402 14.0027C22.0657 13.855 22.299 13.7228 22.5427 13.6139C22.5427 13.6087 22.5479 13.6087 22.5479 13.6087C22.9678 13.4143 23.4162 13.2795 23.8828 13.207C23.9554 13.1992 24.0306 13.1888 24.1031 13.181C24.1213 13.1758 24.142 13.1758 24.1602 13.1758C24.2431 13.1681 24.3235 13.1577 24.4116 13.1577C24.4894 13.1499 24.5671 13.1499 24.6501 13.1499C25.5833 13.1499 26.4542 13.404 27.2085 13.8446C27.2085 13.8446 27.2111 13.8463 27.2163 13.8498C27.9706 14.2957 28.6031 14.9333 29.0386 15.6876C29.176 15.9261 29.2978 16.1724 29.3937 16.429C29.6063 16.9863 29.7229 17.5903 29.7229 18.2202C29.7229 17.5903 29.8059 16.9811 29.9562 16.3979V16.3927C29.9095 16.2579 29.8603 16.1283 29.8059 15.9987L29.7981 16.0065Z" fill="#C46E00"/>
<path d="M24.6449 21.6755C26.5518 21.6755 28.0977 20.1296 28.0977 18.2228C28.0977 16.3159 26.5518 14.77 24.6449 14.77C22.738 14.77 21.1922 16.3159 21.1922 18.2228C21.1922 20.1296 22.738 21.6755 24.6449 21.6755Z" fill="#FFCD24"/>
<path d="M24.6449 14.2309C22.4442 14.2309 20.653 16.022 20.653 18.2228C20.653 20.4235 22.4442 22.2147 24.6449 22.2147C26.8456 22.2147 28.6368 20.4235 28.6368 18.2228C28.6368 16.022 26.8456 14.2309 24.6449 14.2309ZM24.6449 21.1389C23.0404 21.1389 21.7313 19.8299 21.7313 18.2254C21.7313 16.6208 23.0404 15.3118 24.6449 15.3118C26.2495 15.3118 27.5585 16.6208 27.5585 18.2254C27.5585 19.8299 26.2495 21.1389 24.6449 21.1389Z" fill="#C46E00"/>
<path d="M36.9472 25.9914C41.2377 25.9914 44.7159 22.5133 44.7159 18.2228C44.7159 13.9322 41.2377 10.4541 36.9472 10.4541C32.6567 10.4541 29.1786 13.9322 29.1786 18.2228C29.1786 22.5133 32.6567 25.9914 36.9472 25.9914Z" fill="#FFCD24"/>
<path d="M29.964 14.8193C29.9432 14.8633 29.9199 14.9048 29.9043 14.9541V14.9593C29.8966 14.9774 29.8862 14.9904 29.8836 15.0059C29.8655 14.98 29.8525 14.9541 29.8318 14.9282C29.7929 14.8556 29.7462 14.7856 29.697 14.7208C29.614 14.6897 29.5337 14.6612 29.4559 14.6301C29.4352 14.6741 29.417 14.7156 29.3989 14.7597C29.3522 14.8556 29.3133 14.9489 29.2744 15.05C29.3989 15.2366 29.5155 15.431 29.6244 15.6332C29.5855 15.7447 29.5466 15.8535 29.5155 15.965C29.4974 16.022 29.4818 16.0765 29.4689 16.1335C29.4378 16.232 29.4118 16.3357 29.3911 16.4368C29.6036 16.9941 29.7203 17.5981 29.7203 18.2279C29.7203 17.5981 29.8032 16.9889 29.9536 16.4057V16.4005C30.0236 16.1283 30.1091 15.8691 30.2128 15.6099C30.2724 15.4492 30.3424 15.2936 30.415 15.1407C30.4357 15.094 30.4591 15.05 30.4798 15.0033C30.3061 14.9463 30.135 14.8867 29.9665 14.8219L29.964 14.8193ZM29.881 15.0033C29.7825 15.2055 29.6944 15.4129 29.6218 15.628C29.627 15.6332 29.627 15.6358 29.6296 15.641C29.6892 15.7628 29.7462 15.8821 29.7981 16.0039C29.8551 16.1335 29.9017 16.2631 29.9484 16.3979C30.0184 16.1257 30.1039 15.8665 30.2076 15.6073C30.1117 15.3947 30.0002 15.1977 29.8784 15.0033H29.881ZM40.2574 10.607C40.1744 10.5682 40.0889 10.5345 40.0033 10.4982C39.7389 10.3945 39.4719 10.3038 39.1972 10.2312C38.4947 10.029 37.7559 9.92013 36.9913 9.91495H36.9472C35.9155 9.91495 34.9227 10.1042 34.0077 10.4541C33.6111 10.6045 33.2275 10.7833 32.8594 10.9933C32.0869 11.4288 31.387 11.9913 30.796 12.6419C30.6742 12.7767 30.555 12.9192 30.4461 13.0618C30.3243 13.2044 30.218 13.3521 30.1143 13.5025C29.9251 13.7746 29.7514 14.0624 29.5959 14.3605C29.57 14.4045 29.5492 14.446 29.5259 14.4901C29.5 14.5341 29.4792 14.5808 29.4533 14.6275C29.4326 14.6715 29.4144 14.713 29.3963 14.7571C29.3496 14.853 29.3107 14.9463 29.2719 15.0474C29.1811 15.2599 29.1034 15.4699 29.0334 15.6902C28.7742 16.4886 28.6368 17.3388 28.6368 18.2228C28.6368 19.1067 28.7742 19.9569 29.0334 20.7553C29.1034 20.9756 29.1811 21.1882 29.2719 21.393C29.3444 21.5822 29.4326 21.7688 29.5259 21.9529C29.6996 22.2976 29.8966 22.6268 30.1117 22.9405C30.2206 23.0908 30.3269 23.2386 30.4435 23.3811C30.5265 23.4848 30.6068 23.5833 30.6975 23.6844C30.7286 23.7233 30.7572 23.7622 30.7934 23.7959C30.9282 23.9462 31.0656 24.0862 31.2134 24.2236C31.413 24.4128 31.6203 24.5943 31.8381 24.7627C33.2456 25.867 35.0238 26.528 36.9446 26.528C41.5249 26.528 45.2524 22.7979 45.2524 18.2202C45.2524 14.8141 43.1943 11.885 40.2548 10.6019L40.2574 10.607ZM36.9472 25.4548C35.8455 25.4548 34.8009 25.2086 33.8703 24.7679C33.5385 24.6072 33.2223 24.4309 32.9216 24.2288C32.6753 24.0603 32.442 23.884 32.2217 23.6896C31.9547 23.4615 31.7085 23.21 31.4804 22.9482C31.3559 22.8057 31.2393 22.6579 31.1252 22.5076C31.0086 22.352 30.8997 22.1887 30.796 22.0203C30.5627 21.6496 30.3683 21.2556 30.2102 20.8408C30.1065 20.5868 30.021 20.3224 29.951 20.0502V20.045C29.8007 19.4618 29.7177 18.8527 29.7177 18.2228C29.7177 17.5929 29.8007 16.9837 29.951 16.4005V16.3953C30.021 16.1231 30.1065 15.8639 30.2102 15.6047C30.2698 15.444 30.3398 15.2885 30.4124 15.1355C30.4331 15.0889 30.4565 15.0448 30.4772 14.9981C30.5239 14.9022 30.5731 14.8115 30.625 14.7208C30.682 14.6223 30.7364 14.5212 30.7986 14.4279C30.9023 14.2594 31.0112 14.0961 31.1278 13.9405C31.2393 13.7902 31.3559 13.6424 31.483 13.4999C32.5924 12.209 34.1555 11.3199 35.9155 11.0659C36.0918 11.0399 36.2732 11.0218 36.4547 11.0088C36.618 10.9959 36.7839 10.9907 36.9498 10.9907H36.9938C37.7663 10.9959 38.5077 11.1203 39.2075 11.3536C39.5004 11.4495 39.7856 11.5661 40.0629 11.6957C40.1355 11.7294 40.2107 11.7683 40.2781 11.8072C42.5955 13.0126 44.1793 15.4336 44.1793 18.2202C44.1793 22.2043 40.9365 25.4497 36.9498 25.4497L36.9472 25.4548ZM29.964 14.8193C29.9432 14.8633 29.9199 14.9048 29.9043 14.9541V14.9593C29.8966 14.9774 29.8862 14.9904 29.8836 15.0059C29.8655 14.98 29.8525 14.9541 29.8318 14.9282C29.7929 14.8556 29.7462 14.7856 29.697 14.7208C29.614 14.6897 29.5337 14.6612 29.4559 14.6301C29.4352 14.6741 29.417 14.7156 29.3989 14.7597C29.3522 14.8556 29.3133 14.9489 29.2744 15.05C29.3989 15.2366 29.5155 15.431 29.6244 15.6332C29.6296 15.6384 29.6296 15.641 29.6322 15.6462C29.6918 15.768 29.7488 15.8872 29.8007 16.0091C29.8577 16.1387 29.9043 16.2683 29.951 16.4031C30.021 16.1309 30.1065 15.8717 30.2102 15.6125C30.2698 15.4518 30.3398 15.2962 30.4124 15.1433C30.4331 15.0966 30.4565 15.0526 30.4772 15.0059C30.3035 14.9489 30.1324 14.8893 29.964 14.8245V14.8193Z" fill="#C46E00"/>
<path d="M36.9472 23.8348C40.0466 23.8348 42.5592 21.3222 42.5592 18.2228C42.5592 15.1234 40.0466 12.6108 36.9472 12.6108C33.8478 12.6108 31.3352 15.1234 31.3352 18.2228C31.3352 21.3222 33.8478 23.8348 36.9472 23.8348Z" fill="#FFCD24"/>
<path d="M32.4965 15.5088C32.4525 15.374 32.4058 15.2444 32.3488 15.12C32.328 15.12 32.3021 15.1148 32.2762 15.1122C32.2062 15.221 32.1414 15.3247 32.0766 15.4362C32.0429 15.4932 32.0118 15.5477 31.9859 15.6047H31.9807C31.9807 15.6047 31.9729 15.6228 31.9677 15.6306C32.0066 15.7421 32.0455 15.8509 32.0766 15.9624C32.0947 16.0194 32.1103 16.0739 32.1233 16.1309C32.1544 16.2294 32.1803 16.3331 32.201 16.4342C32.2917 16.1827 32.4084 15.9417 32.5432 15.7136C32.5484 15.7058 32.551 15.7006 32.5561 15.6928C32.5873 15.641 32.6158 15.5839 32.6521 15.5321C32.6002 15.5269 32.5484 15.5191 32.4965 15.5114V15.5088ZM32.1907 15.6513C32.1259 15.6384 32.0559 15.6202 31.9885 15.6047H31.9833C31.9833 15.6047 31.9755 15.6228 31.9703 15.6306C32.0092 15.7421 32.0481 15.8509 32.0792 15.9624C32.0973 16.0194 32.1129 16.0739 32.1259 16.1309C32.157 16.2294 32.1829 16.3331 32.2036 16.4342C32.2943 16.1827 32.411 15.9417 32.5458 15.7136C32.4291 15.6954 32.3073 15.6747 32.1907 15.6539V15.6513ZM39.8815 12.8207C39.8116 12.7818 39.739 12.743 39.6664 12.7093C39.389 12.5719 39.0961 12.4552 38.7954 12.3593C38.2252 12.1779 37.6212 12.0794 36.9913 12.0742H36.9472C36.7787 12.0742 36.6154 12.082 36.4521 12.0949C36.2707 12.1079 36.0892 12.1286 35.913 12.1597C34.3499 12.4267 32.9916 13.2821 32.0662 14.4901C31.9366 14.6534 31.82 14.827 31.7111 15.0033C31.7059 15.0033 31.7059 15.0085 31.7059 15.0111C31.6411 15.107 31.5841 15.2107 31.5297 15.3092C31.5037 15.361 31.4726 15.4181 31.4519 15.4699C31.426 15.5166 31.4052 15.5606 31.3819 15.6073C31.006 16.4005 30.7961 17.287 30.7961 18.2228C30.7961 19.1585 31.0086 20.045 31.3819 20.8382C31.4778 21.0508 31.5893 21.2478 31.7111 21.4422C31.82 21.6185 31.9366 21.7921 32.0662 21.9554C32.6132 22.6761 33.3182 23.2671 34.1296 23.687C34.591 23.9281 35.0913 24.1095 35.6149 24.2262C36.0478 24.3221 36.491 24.3739 36.9498 24.3739H36.9939C40.3637 24.3532 43.101 21.6029 43.101 18.2228C43.101 15.8924 41.8023 13.8628 39.8841 12.8181L39.8815 12.8207ZM36.9913 23.2956H36.9472C36.7787 23.2956 36.6154 23.2878 36.4521 23.2697C36.2707 23.2515 36.0892 23.2256 35.913 23.1867C34.4795 22.8886 33.2664 21.9865 32.5587 20.7579C32.4214 20.5194 32.2995 20.2757 32.2036 20.0165C31.9911 19.4592 31.8744 18.8552 31.8744 18.2253C31.8744 17.5955 31.9911 16.9915 32.2036 16.4342C32.2943 16.1827 32.411 15.9417 32.5458 15.7136C32.551 15.7058 32.5536 15.7006 32.5587 15.6928C32.5898 15.641 32.6184 15.5839 32.6546 15.5321C32.7324 15.4077 32.8154 15.2859 32.9061 15.1744C33.6319 14.2127 34.6921 13.5128 35.9156 13.2614C36.0918 13.2225 36.2733 13.1966 36.4547 13.1784C36.618 13.1603 36.7839 13.1525 36.9498 13.1525H36.9939C37.3231 13.1577 37.6445 13.1914 37.9556 13.251C38.2796 13.3158 38.5932 13.4143 38.8965 13.5439C38.9795 13.5776 39.0572 13.6139 39.135 13.6528C40.8432 14.4641 42.0227 16.2087 42.0227 18.2228C42.0227 21.0067 39.7701 23.2722 36.9939 23.2956H36.9913ZM32.4965 15.5088C32.4525 15.374 32.4058 15.2444 32.3488 15.12C32.328 15.12 32.3021 15.1148 32.2762 15.1122C32.2062 15.221 32.1414 15.3247 32.0766 15.4362C32.0429 15.4932 32.0118 15.5477 31.9859 15.6047H31.9807C31.9807 15.6047 31.9729 15.6228 31.9677 15.6306C32.0066 15.7421 32.0455 15.8509 32.0766 15.9624C32.0947 16.0194 32.1103 16.0739 32.1233 16.1309C32.1544 16.2294 32.1803 16.3331 32.201 16.4342C32.2917 16.1827 32.4084 15.9417 32.5432 15.7136C32.5484 15.7058 32.551 15.7006 32.5561 15.6928C32.5873 15.641 32.6158 15.5839 32.6521 15.5321C32.6002 15.5269 32.5484 15.5191 32.4965 15.5114V15.5088Z" fill="#C46E00"/>
<path d="M36.9472 21.6755C38.8541 21.6755 40.4 20.1296 40.4 18.2228C40.4 16.3159 38.8541 14.77 36.9472 14.77C35.0403 14.77 33.4945 16.3159 33.4945 18.2228C33.4945 20.1296 35.0403 21.6755 36.9472 21.6755Z" fill="#FFCD24"/>
<path d="M38.1215 14.4045H38.1163C38.0126 14.3734 37.9037 14.3475 37.7974 14.3216C37.5382 14.2646 37.2661 14.236 36.9913 14.2309H36.9472C36.7787 14.2309 36.6154 14.2386 36.4521 14.2646C36.4521 14.2646 36.4495 14.2628 36.4444 14.2594C36.4444 14.2594 36.4392 14.2646 36.4366 14.2646C36.2603 14.2853 36.0814 14.3216 35.9156 14.3682C35.4101 14.503 34.9435 14.7363 34.5391 15.0422C34.3188 15.2107 34.1166 15.4051 33.93 15.6125C33.8703 15.6851 33.8081 15.7602 33.7537 15.838C33.2534 16.5068 32.9605 17.3311 32.9605 18.2254C32.9605 20.0684 34.2177 21.6211 35.9181 22.0799C36.0944 22.1265 36.2733 22.1654 36.4573 22.1836C36.6206 22.2095 36.7865 22.2173 36.9524 22.2173H36.9965C39.1765 22.1965 40.9469 20.4131 40.9469 18.2254C40.9469 16.4342 39.7597 14.91 38.1292 14.4045H38.1215ZM36.9913 21.1337C36.9783 21.1389 36.9602 21.1389 36.9472 21.1389C36.7787 21.1389 36.6102 21.126 36.4521 21.0923C36.2655 21.0663 36.084 21.0145 35.913 20.9445C34.8165 20.5298 34.0362 19.4696 34.0362 18.2254C34.0362 16.9811 34.8139 15.9287 35.9 15.5114C35.9052 15.5114 35.9078 15.5114 35.913 15.5062C35.97 15.4881 36.0244 15.4673 36.0814 15.4466C36.2033 15.4077 36.3277 15.3766 36.4521 15.361C36.6128 15.3273 36.7813 15.3144 36.9472 15.3144C36.9602 15.3144 36.9783 15.3144 36.9913 15.3196C38.5751 15.3377 39.8608 16.6364 39.8608 18.2279C39.8608 19.8195 38.5751 21.1208 36.9913 21.1363V21.1337Z" fill="#C46E00"/>
<path d="M45.255 24.5709L43.959 26.8857H6.0385L4.74243 24.5709H45.255Z" fill="#E6E6EF"/>
<path d="M48.3034 17.0718H1.69667C1.11687 17.0718 0.646851 17.5419 0.646851 18.1217V23.7596C0.646851 24.3394 1.11687 24.8094 1.69667 24.8094H48.3034C48.8832 24.8094 49.3532 24.3394 49.3532 23.7596V18.1217C49.3532 17.5419 48.8832 17.0718 48.3034 17.0718Z" fill="#F5F5FC"/>
<path opacity="0.16" d="M40.3299 11.2318C40.3299 11.4054 40.317 11.5817 40.2859 11.7528C40.2807 11.7709 40.2807 11.7917 40.2729 11.8098C40.2133 12.1598 40.0837 12.4993 39.8893 12.8078C39.8841 12.813 39.8841 12.8156 39.8815 12.8207C39.7856 12.9711 39.6741 13.1188 39.5497 13.2536L39.5445 13.2588C39.5238 13.2796 39.5005 13.3029 39.4797 13.3288C39.376 13.4377 39.2646 13.544 39.1298 13.658L39.1039 13.6839C38.8265 13.9224 38.5051 14.1635 38.1188 14.4097H38.1137C38.0696 14.4408 38.0307 14.4693 37.9892 14.4953C37.8207 14.6041 37.6393 14.7078 37.4449 14.8115C37.3593 14.8634 37.2686 14.9074 37.1727 14.9541C37.1649 14.9593 37.1598 14.9619 37.152 14.9619C37.1001 14.993 37.0431 15.0189 36.9887 15.0448C36.872 15.1044 36.7502 15.1615 36.6258 15.2185C36.5662 15.2444 36.5091 15.2703 36.4495 15.2962C36.3588 15.3403 36.2681 15.3792 36.1721 15.4129C36.141 15.431 36.1073 15.444 36.0762 15.4518C36.0192 15.4725 35.9648 15.4958 35.9077 15.5114C35.9026 15.5166 35.9 15.5166 35.8948 15.5166C35.5708 15.6332 35.2467 15.711 34.9227 15.768C34.7724 15.7939 34.6246 15.8121 34.4743 15.8199H34.4691C34.3343 15.8328 34.1969 15.8406 34.0595 15.8406C33.9559 15.8458 33.8522 15.8458 33.7433 15.8458C33.4193 15.8406 33.0927 15.8069 32.7687 15.7602C32.7168 15.7551 32.665 15.7473 32.608 15.7343C32.5898 15.7291 32.5768 15.7291 32.5613 15.7265C32.5561 15.7265 32.5483 15.7265 32.5406 15.7214C32.4239 15.7032 32.3021 15.6825 32.1854 15.6617C32.1206 15.6488 32.0506 15.6306 31.9832 15.6151H31.9781C31.9781 15.6151 31.9651 15.6099 31.9573 15.6099C31.8485 15.584 31.7422 15.558 31.6281 15.5269C31.5711 15.514 31.5063 15.4958 31.4467 15.4803C31.4026 15.4725 31.3611 15.4595 31.3171 15.4466C31.3171 15.4466 31.3145 15.4449 31.3093 15.4414C31.0578 15.3714 30.8038 15.2911 30.5627 15.2029C30.5109 15.1848 30.4591 15.1692 30.4072 15.1459C30.2828 15.107 30.1558 15.0629 30.0391 15.0163C29.9925 14.9981 29.9432 14.9826 29.8966 14.9644V14.9593C29.8706 14.9515 29.8447 14.9411 29.824 14.9333C29.8033 14.9256 29.7851 14.9204 29.767 14.9126C29.684 14.8789 29.5985 14.8478 29.5207 14.8167C29.4766 14.7986 29.4352 14.783 29.3911 14.7649C29.2148 14.6949 29.0463 14.6275 28.8779 14.5523H28.8727C28.8208 14.5316 28.7742 14.5134 28.7249 14.4927H28.7197C28.1935 14.2672 27.6881 14.052 27.2059 13.8576C27.2059 13.8576 27.2033 13.8559 27.1981 13.8524C26.3661 13.5103 25.6092 13.2459 24.9637 13.1785C24.9145 13.1759 24.8626 13.1707 24.8134 13.1681C24.7615 13.1655 24.7097 13.1603 24.6604 13.1603C24.5697 13.1603 24.4842 13.1603 24.4012 13.1655C24.3157 13.1707 24.2327 13.1733 24.1498 13.1836C24.1316 13.1836 24.1109 13.1836 24.0928 13.1888C24.015 13.194 23.945 13.2018 23.8724 13.2148C23.3384 13.2847 22.9004 13.4273 22.5375 13.6165C22.5375 13.6165 22.5323 13.6165 22.5323 13.6217C22.2394 13.7721 21.9983 13.9587 21.7909 14.1609C21.1274 14.8089 20.8111 15.6358 20.3834 16.1802C20.3575 16.2242 20.3264 16.2631 20.2927 16.302C20.1838 16.4264 20.0646 16.5301 19.9298 16.6079C19.8987 16.6286 19.8728 16.6467 19.8442 16.6597C19.8391 16.6649 19.8313 16.6649 19.8235 16.6675C19.8183 16.6675 19.8157 16.6727 19.8105 16.6727C19.6887 16.7297 19.5591 16.7582 19.4139 16.7686C19.388 16.7738 19.3569 16.7738 19.3284 16.7738C19.3154 16.7738 19.2973 16.7738 19.2843 16.7686C19.2636 16.7738 19.2403 16.7738 19.2247 16.7686H19.2195C19.007 16.7608 18.8385 16.7167 18.6933 16.6467C18.6881 16.6467 18.6881 16.6416 18.6856 16.6416C18.263 16.4342 18.0634 16.0169 17.9312 15.5399V15.5347C17.9312 15.5347 17.9261 15.5347 17.9261 15.5295C17.8483 15.2522 17.7964 14.9567 17.7316 14.6715V14.6586C17.6746 14.4071 17.6098 14.1661 17.5165 13.9587V13.9535C17.5165 13.9535 17.5113 13.9457 17.5113 13.9406V13.9354C17.4465 13.7928 17.3636 13.6684 17.2599 13.5647C16.6248 12.9167 15.8705 12.7145 15.0669 12.7197H15.0617C14.9581 12.7197 14.8621 12.7248 14.7585 12.7326C14.4733 12.7508 14.1882 12.7922 13.9005 12.8415H13.8953C13.7916 12.8596 13.6879 12.8752 13.5842 12.8933H13.579C13.4831 12.9141 13.3846 12.9322 13.2861 12.9529C13.2343 12.9607 13.1772 12.9711 13.1228 12.9841C12.9984 13.01 12.8688 13.0411 12.7418 13.0618C12.6847 13.0748 12.6303 13.0826 12.5733 13.0929C12.4489 13.1188 12.327 13.1396 12.2052 13.1629H12.1922C12.1352 13.1759 12.0834 13.1836 12.0289 13.194C11.7697 13.2329 11.5157 13.264 11.2694 13.277C10.8365 13.2977 10.4192 13.2692 10.0304 13.1396C10.0226 13.1344 10.0097 13.1318 9.99928 13.1266C9.79191 13.0566 9.5975 12.9633 9.40827 12.8285C9.40309 12.8285 9.39531 12.8233 9.39013 12.8207C9.11795 12.6341 8.86911 12.3749 8.64359 12.0353C8.64359 12.0301 8.63841 12.0301 8.63841 12.0276C8.62545 12.0094 8.61249 11.9939 8.59953 11.9757C8.5088 11.8331 8.44918 11.6828 8.40512 11.5299C8.39734 11.5039 8.38697 11.478 8.38438 11.4521C8.3455 11.2914 8.32476 11.1281 8.33772 10.957L10.2637 10.7444L12.2052 10.5319L12.7392 10.4723H12.7444L12.8351 10.4645L14.6729 10.2623L17.7627 9.92532H36.9757C37.7404 9.93051 38.4766 10.0368 39.1816 10.2416C39.459 10.3141 39.726 10.4049 39.9878 10.5086C40.0733 10.5423 40.1615 10.5785 40.2418 10.6174C40.2807 10.7989 40.3066 10.9803 40.3118 11.1644C40.3118 11.1903 40.3118 11.2162 40.317 11.2421L40.3299 11.2318Z" fill="black"/>
<path d="M39.2568 10.8041C39.2568 10.9907 39.2387 11.1747 39.205 11.3562C39.135 11.7113 38.9976 12.0509 38.7954 12.3567C38.6995 12.5045 38.5932 12.6419 38.4662 12.7715C38.4532 12.7845 38.4403 12.7974 38.4273 12.8104C38.2848 12.9581 38.1292 13.1033 37.953 13.251C37.6808 13.4791 37.3619 13.7124 36.9913 13.9457C36.8228 14.0494 36.6413 14.1583 36.4521 14.2568C36.4521 14.2568 36.4495 14.2585 36.4443 14.262C36.4443 14.262 36.4391 14.2672 36.4366 14.2672C36.2733 14.3579 36.0944 14.4486 35.9155 14.5341C35.747 14.6171 35.5708 14.6949 35.3893 14.7726C35.1094 14.8945 34.8242 14.9852 34.5391 15.0448C33.9999 15.1692 33.4504 15.2081 32.9086 15.1744C32.7272 15.1666 32.5406 15.1485 32.3565 15.1226C32.3358 15.1226 32.3099 15.1174 32.2839 15.1148C32.0973 15.0889 31.9133 15.0552 31.7266 15.0163H31.7137C31.4882 14.9696 31.2652 14.9126 31.0449 14.853C30.9075 14.8141 30.7675 14.77 30.6302 14.7286C30.4539 14.6767 30.2802 14.6171 30.1091 14.5549C29.9406 14.4953 29.7722 14.4305 29.6037 14.3657C29.5207 14.3346 29.4352 14.3009 29.3522 14.2697C28.8468 14.0676 28.3594 13.855 27.8903 13.645C27.8851 13.645 27.8851 13.6399 27.8825 13.6399C26.7134 13.1344 25.6636 12.6808 24.8263 12.6211C24.7693 12.616 24.7097 12.616 24.6527 12.616C24.5542 12.616 24.4583 12.6211 24.3624 12.6237C24.2639 12.6289 24.1679 12.6315 24.0772 12.6445C24.0176 12.6497 23.9554 12.6574 23.901 12.6652H23.8958C23.8232 12.673 23.7532 12.686 23.6832 12.6989C22.4234 12.94 21.8065 13.658 21.3658 14.3682C20.9848 14.9722 20.7359 15.5684 20.316 15.8691C20.246 15.9209 20.1734 15.9598 20.0957 15.9909C20.0101 16.0298 19.9142 16.0557 19.8105 16.0635C19.7665 16.0687 19.725 16.0713 19.6758 16.0713C19.6032 16.0713 19.5332 16.0661 19.4684 16.0583C19.3828 16.0506 19.3051 16.0324 19.2299 16.0117C19.1314 15.978 19.0407 15.9339 18.9629 15.8821C18.5948 15.641 18.4367 15.1951 18.3253 14.7156C18.2656 14.4616 18.2216 14.1972 18.1645 13.9483C18.1594 13.9405 18.1594 13.9302 18.1568 13.9224C18.1049 13.6969 18.0453 13.4869 17.9546 13.3055C17.9027 13.1888 17.8327 13.0851 17.7524 12.9996C17.3558 12.5849 16.9099 12.3645 16.4408 12.266C15.7513 12.1105 14.9995 12.222 14.2478 12.3749C13.9316 12.4345 13.6127 12.5045 13.3017 12.5641C13.1591 12.59 13.0217 12.616 12.8818 12.6367H12.8766C12.8325 12.6445 12.7988 12.6497 12.7547 12.6574C12.5733 12.6834 12.3918 12.7015 12.2208 12.7145C11.9486 12.7326 11.6894 12.7274 11.4353 12.6834H11.4302C11.1061 12.6367 10.8003 12.533 10.5099 12.3516C10.217 12.1649 9.95004 11.8979 9.70638 11.5273C9.70119 11.5195 9.69342 11.5065 9.68823 11.4962C9.58973 11.3354 9.51456 11.1721 9.47308 11.0011C9.42643 10.8248 9.40828 10.6382 9.42643 10.4437C9.47308 9.47688 10.2585 8.3804 11.7023 7.39539C14.0923 5.75197 18.2941 4.39887 23.9476 4.40924C30.8401 4.41442 34.6946 5.87121 36.8435 7.37465C36.8487 7.37465 36.8513 7.37983 36.8565 7.37983C37.6678 7.94492 38.2329 8.52038 38.6347 9.01548C38.925 9.37838 39.1091 9.79571 39.1946 10.2286C39.2387 10.4178 39.2542 10.6096 39.2542 10.8015L39.2568 10.8041Z" fill="url(#paint0_linear_280_473)"/>
<path d="M15.7513 11.3276C17.0912 11.3276 18.1775 10.2414 18.1775 8.9014C18.1775 7.56143 17.0912 6.47516 15.7513 6.47516C14.4113 6.47516 13.325 7.56143 13.325 8.9014C13.325 10.2414 14.4113 11.3276 15.7513 11.3276Z" fill="#9E3D20"/>
<path d="M23.9321 7.11284C25.8962 7.11284 27.4885 5.52058 27.4885 3.55642C27.4885 1.59226 25.8962 0 23.9321 0C21.9679 0 20.3757 1.59226 20.3757 3.55642C20.3757 5.52058 21.9679 7.11284 23.9321 7.11284Z" fill="#9E3D20"/>
<path d="M32.6935 11.3847C34.5016 11.3847 35.9674 9.91893 35.9674 8.11082C35.9674 6.30271 34.5016 4.83694 32.6935 4.83694C30.8854 4.83694 29.4196 6.30271 29.4196 8.11082C29.4196 9.91893 30.8854 11.3847 32.6935 11.3847Z" fill="#9E3D20"/>
<path d="M32.2658 8.45817C32.0273 8.45299 31.877 8.71739 31.9885 8.92735C32.0585 9.05955 32.1544 9.18138 32.2814 9.22026C32.4887 9.28248 32.6961 9.25396 32.8698 9.19434C33.1368 9.10362 33.1575 8.73035 32.9035 8.60852C32.7376 8.52816 32.5224 8.46336 32.2658 8.45817Z" fill="#BC4E35"/>
<path d="M34.2099 6.64108C34.3784 6.63849 34.4847 6.82512 34.4069 6.97287C34.3577 7.06619 34.2903 7.15173 34.1996 7.18024C34.0518 7.22431 33.9067 7.20357 33.7822 7.1621C33.593 7.0973 33.58 6.8329 33.7589 6.74736C33.8781 6.69033 34.0285 6.64367 34.2099 6.64108Z" fill="#BC4E35"/>
<path d="M32.6883 10.563C31.019 10.563 29.6451 9.31098 29.4429 7.69608C29.4274 7.83087 29.4144 7.96566 29.4144 8.10304C29.4144 9.90977 30.879 11.3769 32.6883 11.3769C34.4976 11.3769 35.9622 9.91236 35.9622 8.10304C35.9622 7.96566 35.9518 7.82827 35.9337 7.69608C35.7315 9.31098 34.3576 10.563 32.6883 10.563Z" fill="#89311D"/>
<path d="M31.1071 6.54255C31.1071 6.54255 30.9282 6.48293 30.9568 6.64365C30.9853 6.80436 31.3145 6.92619 31.3819 6.7914C31.4493 6.65661 31.3119 6.56329 31.1071 6.54515V6.54255Z" fill="#BC4E35"/>
<path d="M23.3644 3.77676C23.0455 3.77158 22.8459 4.12151 22.9937 4.40147C23.087 4.57773 23.214 4.73844 23.3825 4.79029C23.6599 4.87324 23.9346 4.83435 24.1653 4.75659C24.5205 4.63735 24.5464 4.13966 24.212 3.97895C23.9917 3.87008 23.7065 3.78454 23.3644 3.77935V3.77676Z" fill="#BC4E35"/>
<path d="M25.9487 1.36345C26.1743 1.36086 26.3142 1.60712 26.2106 1.80671C26.1458 1.93113 26.055 2.04519 25.9358 2.08148C25.7388 2.1411 25.5444 2.11258 25.3811 2.05815C25.1296 1.97261 25.1115 1.62267 25.35 1.50602C25.5081 1.43085 25.7077 1.36864 25.9513 1.36345H25.9487Z" fill="#BC4E35"/>
<path d="M22.4182 1.75229C22.4182 1.75229 22.1823 1.67194 22.2186 1.88449C22.2549 2.09705 22.693 2.26294 22.7837 2.0789C22.8745 1.89486 22.6878 1.77821 22.4182 1.7497V1.75229Z" fill="#BC4E35"/>
<path d="M16.0935 9.30838C16.2853 9.30579 16.4045 9.51575 16.3164 9.68424C16.2594 9.79052 16.1842 9.88643 16.0831 9.91753C15.9172 9.96678 15.7513 9.94345 15.6113 9.89679C15.3988 9.82421 15.3806 9.52612 15.5828 9.42762C15.715 9.36281 15.8861 9.31097 16.0935 9.30579V9.30838Z" fill="#BC4E35"/>
<path d="M14.5382 7.85419C14.4034 7.85419 14.3178 8.00194 14.3801 8.12118C14.4189 8.19635 14.4734 8.26634 14.5459 8.28707C14.6652 8.32336 14.7818 8.30522 14.8803 8.27411C15.0307 8.22227 15.0436 8.01231 14.8985 7.94232C14.8052 7.89566 14.6833 7.85937 14.5356 7.85678L14.5382 7.85419Z" fill="#BC4E35"/>
<path d="M17.0188 7.77383C17.0188 7.77383 17.1614 7.72458 17.1406 7.85419C17.1199 7.9838 16.8555 8.0823 16.8011 7.97084C16.7466 7.85937 16.8581 7.78938 17.0214 7.77383H17.0188Z" fill="#BC4E35"/>
<path d="M15.7513 10.7989C14.4915 10.7989 13.4572 9.83976 13.338 8.61108C13.3302 8.68885 13.325 8.7692 13.325 8.84956C13.325 10.1897 14.4111 11.2758 15.7513 11.2758C17.0914 11.2758 18.1775 10.1897 18.1775 8.84956C18.1775 8.7692 18.1723 8.68885 18.1645 8.61108C18.0453 9.83976 17.011 10.7989 15.7513 10.7989Z" fill="#89311D"/>
<path d="M23.9321 6.45961C22.0787 6.45961 20.5571 5.0417 20.3912 3.2298C20.3809 3.33867 20.3757 3.44754 20.3757 3.559C20.3757 5.52384 21.9672 7.11542 23.9321 7.11542C25.8969 7.11542 27.4885 5.52384 27.4885 3.559C27.4885 3.44754 27.4807 3.33867 27.473 3.2298C27.3071 5.0417 25.7855 6.45961 23.9321 6.45961Z" fill="#89311D"/>
</g>
<defs>
<linearGradient id="paint0_linear_280_473" x1="24.339" y1="2.32775" x2="24.339" y2="22.3209" gradientUnits="userSpaceOnUse">
<stop stop-color="#F23920"/>
<stop offset="1" stop-color="#D62300"/>
</linearGradient>
<clipPath id="clip0_280_473">
<rect width="48.7064" height="32" fill="white" transform="translate(0.646851)"/>
</clipPath>
</defs>
</svg>
